<svg width="21" height="25" viewBox="0 0 21 25" fill="none" xmlns="http://www.w3.org/2000/svg">
<path d="M18.6667 14.4825V10C18.6667 5.97875 16.1175 2.59125 12.6642 1.5725C12.3223 0.65 11.487 0 10.5 0C9.513 0 8.67767 0.65 8.33583 1.5725C4.8825 2.5925 2.33333 5.97875 2.33333 10V14.4825L0.341834 16.6162C0.233285 16.7321 0.147199 16.8699 0.0885329 17.0215C0.0298668 17.1732 -0.000221024 17.3358 1.22229e-06 17.5V20C1.22229e-06 20.3315 0.122917 20.6495 0.34171 20.8839C0.560502 21.1183 0.857248 21.25 1.16667 21.25H19.8333C20.1428 21.25 20.4395 21.1183 20.6583 20.8839C20.8771 20.6495 21 20.3315 21 20V17.5C21.0002 17.3358 20.9701 17.1732 20.9115 17.0215C20.8528 16.8699 20.7667 16.7321 20.6582 16.6162L18.6667 14.4825ZM18.6667 18.75H2.33333V18.0175L4.32483 15.8837C4.43338 15.7679 4.51947 15.6301 4.57814 15.4785C4.6368 15.3268 4.66689 15.1642 4.66667 15V10C4.66667 6.55375 7.2835 3.75 10.5 3.75C13.7165 3.75 16.3333 6.55375 16.3333 10V15C16.3333 15.3325 16.4558 15.65 16.6752 15.8837L18.6667 18.0175V18.75ZM10.5 25C11.2225 25.001 11.9274 24.7607 12.5166 24.3127C13.1058 23.8647 13.5501 23.2311 13.7877 22.5H7.21233C7.44994 23.2311 7.89422 23.8647 8.48343 24.3127C9.07263 24.7607 9.77748 25.001 10.5 25Z" fill="black"/>
</svg>
